<mxfile host="app.diagrams.net" modified="2021-06-07T11:37:57.086Z" agent="5.0 (Windows NT 10.0; WOW64) AppleWebKit/537.36 (KHTML, like Gecko) Chrome/84.0.4147.89 Safari/537.36 SLBrowser/7.0.0.5211 SLBChan/3" etag="du24ytprSWy6EN28crtp" version="14.7.6" type="github">
  <diagram id="VFPRk3SO7u7Fnfk16GSO" name="Page-1">
    <mxGraphModel dx="1278" dy="549" grid="0" gridSize="10" guides="1" tooltips="1" connect="1" arrows="1" fold="1" page="0" pageScale="1" pageWidth="827" pageHeight="1169" math="0" shadow="0">
      <root>
        <mxCell id="0" />
        <mxCell id="1" parent="0" />
        <mxCell id="8gNELmWuBTa5htfe1J0R-1" value="&lt;span&gt;&lt;font style=&quot;font-size: 18px&quot;&gt;VPN[2]&lt;/font&gt;&lt;/span&gt;" style="rounded=0;whiteSpace=wrap;html=1;" parent="1" vertex="1">
          <mxGeometry x="200" y="120" width="120" height="40" as="geometry" />
        </mxCell>
        <mxCell id="8gNELmWuBTa5htfe1J0R-2" value="&lt;span&gt;&lt;font style=&quot;font-size: 18px&quot;&gt;VPN[1]&lt;/font&gt;&lt;/span&gt;" style="rounded=0;whiteSpace=wrap;html=1;" parent="1" vertex="1">
          <mxGeometry x="320" y="120" width="120" height="40" as="geometry" />
        </mxCell>
        <mxCell id="8gNELmWuBTa5htfe1J0R-3" value="&lt;font style=&quot;font-size: 18px&quot;&gt;VPN[0]&lt;/font&gt;" style="rounded=0;whiteSpace=wrap;html=1;" parent="1" vertex="1">
          <mxGeometry x="440" y="120" width="120" height="40" as="geometry" />
        </mxCell>
        <mxCell id="8gNELmWuBTa5htfe1J0R-4" value="&lt;font style=&quot;font-size: 18px&quot;&gt;page offset&lt;/font&gt;" style="rounded=0;whiteSpace=wrap;html=1;" parent="1" vertex="1">
          <mxGeometry x="560" y="120" width="160" height="40" as="geometry" />
        </mxCell>
        <mxCell id="8gNELmWuBTa5htfe1J0R-5" value="&lt;span&gt;&lt;font style=&quot;font-size: 18px&quot;&gt;VPN[4]&lt;/font&gt;&lt;/span&gt;" style="rounded=0;whiteSpace=wrap;html=1;" parent="1" vertex="1">
          <mxGeometry x="80" y="250" width="120" height="40" as="geometry" />
        </mxCell>
        <mxCell id="8gNELmWuBTa5htfe1J0R-6" value="&lt;span&gt;&lt;font style=&quot;font-size: 18px&quot;&gt;VPN[3]&lt;/font&gt;&lt;/span&gt;" style="rounded=0;whiteSpace=wrap;html=1;" parent="1" vertex="1">
          <mxGeometry x="200" y="250" width="120" height="40" as="geometry" />
        </mxCell>
        <mxCell id="8gNELmWuBTa5htfe1J0R-7" value="&lt;span&gt;&lt;font style=&quot;font-size: 18px&quot;&gt;VPN[2]&lt;/font&gt;&lt;/span&gt;" style="rounded=0;whiteSpace=wrap;html=1;" parent="1" vertex="1">
          <mxGeometry x="320" y="250" width="120" height="40" as="geometry" />
        </mxCell>
        <mxCell id="8gNELmWuBTa5htfe1J0R-8" value="&lt;span&gt;&lt;font style=&quot;font-size: 18px&quot;&gt;VPN[1]&lt;/font&gt;&lt;/span&gt;" style="rounded=0;whiteSpace=wrap;html=1;" parent="1" vertex="1">
          <mxGeometry x="440" y="250" width="120" height="40" as="geometry" />
        </mxCell>
        <mxCell id="8gNELmWuBTa5htfe1J0R-9" value="&lt;span&gt;&lt;font style=&quot;font-size: 18px&quot;&gt;VPN[0]&lt;/font&gt;&lt;/span&gt;" style="rounded=0;whiteSpace=wrap;html=1;" parent="1" vertex="1">
          <mxGeometry x="560" y="250" width="120" height="40" as="geometry" />
        </mxCell>
        <mxCell id="8gNELmWuBTa5htfe1J0R-10" value="&lt;span&gt;&lt;font style=&quot;font-size: 18px&quot;&gt;page offset&lt;/font&gt;&lt;/span&gt;" style="rounded=0;whiteSpace=wrap;html=1;" parent="1" vertex="1">
          <mxGeometry x="680" y="250" width="160" height="40" as="geometry" />
        </mxCell>
        <mxCell id="8gNELmWuBTa5htfe1J0R-11" value="" style="shape=flexArrow;endArrow=classic;html=1;fillColor=#1ba1e2;strokeColor=#006EAF;" parent="1" edge="1">
          <mxGeometry width="50" height="50" relative="1" as="geometry">
            <mxPoint x="440" y="180" as="sourcePoint" />
            <mxPoint x="440" y="230" as="targetPoint" />
          </mxGeometry>
        </mxCell>
        <mxCell id="8gNELmWuBTa5htfe1J0R-14" value="&lt;font style=&quot;font-size: 18px&quot;&gt;9&lt;/font&gt;" style="text;html=1;strokeColor=none;fillColor=none;align=center;verticalAlign=middle;whiteSpace=wrap;rounded=0;opacity=40;" parent="1" vertex="1">
          <mxGeometry x="240" y="165" width="40" height="20" as="geometry" />
        </mxCell>
        <mxCell id="8gNELmWuBTa5htfe1J0R-15" value="&lt;font style=&quot;font-size: 18px&quot;&gt;9&lt;/font&gt;" style="text;html=1;strokeColor=none;fillColor=none;align=center;verticalAlign=middle;whiteSpace=wrap;rounded=0;opacity=40;" parent="1" vertex="1">
          <mxGeometry x="360" y="165" width="40" height="20" as="geometry" />
        </mxCell>
        <mxCell id="8gNELmWuBTa5htfe1J0R-16" value="&lt;font style=&quot;font-size: 18px&quot;&gt;9&lt;/font&gt;" style="text;html=1;strokeColor=none;fillColor=none;align=center;verticalAlign=middle;whiteSpace=wrap;rounded=0;opacity=40;" parent="1" vertex="1">
          <mxGeometry x="120" y="298" width="40" height="20" as="geometry" />
        </mxCell>
        <mxCell id="8gNELmWuBTa5htfe1J0R-17" value="&lt;font style=&quot;font-size: 18px&quot;&gt;9&lt;/font&gt;" style="text;html=1;strokeColor=none;fillColor=none;align=center;verticalAlign=middle;whiteSpace=wrap;rounded=0;opacity=40;" parent="1" vertex="1">
          <mxGeometry x="240" y="298" width="40" height="20" as="geometry" />
        </mxCell>
        <mxCell id="8gNELmWuBTa5htfe1J0R-18" value="&lt;font style=&quot;font-size: 18px&quot;&gt;9&lt;/font&gt;" style="text;html=1;strokeColor=none;fillColor=none;align=center;verticalAlign=middle;whiteSpace=wrap;rounded=0;opacity=40;" parent="1" vertex="1">
          <mxGeometry x="360" y="298" width="40" height="20" as="geometry" />
        </mxCell>
        <mxCell id="8gNELmWuBTa5htfe1J0R-19" value="&lt;font style=&quot;font-size: 18px&quot;&gt;9&lt;/font&gt;" style="text;html=1;strokeColor=none;fillColor=none;align=center;verticalAlign=middle;whiteSpace=wrap;rounded=0;opacity=40;" parent="1" vertex="1">
          <mxGeometry x="480" y="298" width="40" height="20" as="geometry" />
        </mxCell>
        <mxCell id="8gNELmWuBTa5htfe1J0R-20" value="&lt;font style=&quot;font-size: 18px&quot;&gt;9&lt;/font&gt;" style="text;html=1;strokeColor=none;fillColor=none;align=center;verticalAlign=middle;whiteSpace=wrap;rounded=0;opacity=40;" parent="1" vertex="1">
          <mxGeometry x="480" y="165" width="40" height="20" as="geometry" />
        </mxCell>
        <mxCell id="8gNELmWuBTa5htfe1J0R-21" value="&lt;font style=&quot;font-size: 18px&quot;&gt;9&lt;/font&gt;" style="text;html=1;strokeColor=none;fillColor=none;align=center;verticalAlign=middle;whiteSpace=wrap;rounded=0;opacity=40;" parent="1" vertex="1">
          <mxGeometry x="600" y="298" width="40" height="20" as="geometry" />
        </mxCell>
        <mxCell id="8gNELmWuBTa5htfe1J0R-22" value="&lt;font style=&quot;font-size: 18px&quot;&gt;12&lt;/font&gt;" style="text;html=1;strokeColor=none;fillColor=none;align=center;verticalAlign=middle;whiteSpace=wrap;rounded=0;opacity=40;" parent="1" vertex="1">
          <mxGeometry x="740" y="298" width="40" height="20" as="geometry" />
        </mxCell>
        <mxCell id="8gNELmWuBTa5htfe1J0R-23" value="&lt;font style=&quot;font-size: 18px&quot;&gt;12&lt;/font&gt;" style="text;html=1;strokeColor=none;fillColor=none;align=center;verticalAlign=middle;whiteSpace=wrap;rounded=0;opacity=40;" parent="1" vertex="1">
          <mxGeometry x="620" y="165" width="40" height="20" as="geometry" />
        </mxCell>
        <mxCell id="8gNELmWuBTa5htfe1J0R-24" value="&lt;span&gt;&lt;font style=&quot;font-size: 18px&quot;&gt;PPN[2]&lt;/font&gt;&lt;/span&gt;" style="rounded=0;whiteSpace=wrap;html=1;" parent="1" vertex="1">
          <mxGeometry x="167" y="553" width="133" height="40" as="geometry" />
        </mxCell>
        <mxCell id="8gNELmWuBTa5htfe1J0R-25" value="&lt;span&gt;&lt;font style=&quot;font-size: 18px&quot;&gt;PPN[1]&lt;/font&gt;&lt;/span&gt;" style="rounded=0;whiteSpace=wrap;html=1;" parent="1" vertex="1">
          <mxGeometry x="300" y="553" width="120" height="40" as="geometry" />
        </mxCell>
        <mxCell id="8gNELmWuBTa5htfe1J0R-26" value="&lt;font style=&quot;font-size: 18px&quot;&gt;PPN[0]&lt;/font&gt;" style="rounded=0;whiteSpace=wrap;html=1;" parent="1" vertex="1">
          <mxGeometry x="420" y="553" width="120" height="40" as="geometry" />
        </mxCell>
        <mxCell id="8gNELmWuBTa5htfe1J0R-27" value="&lt;font style=&quot;font-size: 18px&quot;&gt;page offset&lt;/font&gt;" style="rounded=0;whiteSpace=wrap;html=1;" parent="1" vertex="1">
          <mxGeometry x="540" y="553" width="160" height="40" as="geometry" />
        </mxCell>
        <mxCell id="8gNELmWuBTa5htfe1J0R-29" value="&lt;span&gt;&lt;font style=&quot;font-size: 18px&quot;&gt;PPN[3]&lt;/font&gt;&lt;/span&gt;" style="rounded=0;whiteSpace=wrap;html=1;" parent="1" vertex="1">
          <mxGeometry x="56" y="680" width="230" height="40" as="geometry" />
        </mxCell>
        <mxCell id="8gNELmWuBTa5htfe1J0R-30" value="&lt;span&gt;&lt;font style=&quot;font-size: 18px&quot;&gt;PPN[2]&lt;/font&gt;&lt;/span&gt;" style="rounded=0;whiteSpace=wrap;html=1;" parent="1" vertex="1">
          <mxGeometry x="286" y="680" width="120" height="40" as="geometry" />
        </mxCell>
        <mxCell id="8gNELmWuBTa5htfe1J0R-31" value="&lt;span&gt;&lt;font style=&quot;font-size: 18px&quot;&gt;PPN[1]&lt;/font&gt;&lt;/span&gt;" style="rounded=0;whiteSpace=wrap;html=1;" parent="1" vertex="1">
          <mxGeometry x="406" y="680" width="120" height="40" as="geometry" />
        </mxCell>
        <mxCell id="8gNELmWuBTa5htfe1J0R-32" value="&lt;span&gt;&lt;font style=&quot;font-size: 18px&quot;&gt;PPN[0]&lt;/font&gt;&lt;/span&gt;" style="rounded=0;whiteSpace=wrap;html=1;" parent="1" vertex="1">
          <mxGeometry x="526" y="680" width="120" height="40" as="geometry" />
        </mxCell>
        <mxCell id="8gNELmWuBTa5htfe1J0R-33" value="&lt;span&gt;&lt;font style=&quot;font-size: 18px&quot;&gt;page offset&lt;/font&gt;&lt;/span&gt;" style="rounded=0;whiteSpace=wrap;html=1;" parent="1" vertex="1">
          <mxGeometry x="646" y="680" width="160" height="40" as="geometry" />
        </mxCell>
        <mxCell id="8gNELmWuBTa5htfe1J0R-34" value="" style="shape=flexArrow;endArrow=classic;html=1;fillColor=#1ba1e2;strokeColor=#006EAF;" parent="1" edge="1">
          <mxGeometry width="50" height="50" relative="1" as="geometry">
            <mxPoint x="442.5" y="608" as="sourcePoint" />
            <mxPoint x="442.5" y="658" as="targetPoint" />
          </mxGeometry>
        </mxCell>
        <mxCell id="8gNELmWuBTa5htfe1J0R-36" value="&lt;font style=&quot;font-size: 18px&quot;&gt;2&lt;/font&gt;" style="text;html=1;strokeColor=none;fillColor=none;align=center;verticalAlign=middle;whiteSpace=wrap;rounded=0;opacity=40;" parent="1" vertex="1">
          <mxGeometry x="218" y="598" width="40" height="20" as="geometry" />
        </mxCell>
        <mxCell id="8gNELmWuBTa5htfe1J0R-37" value="&lt;font style=&quot;font-size: 18px&quot;&gt;9&lt;/font&gt;" style="text;html=1;strokeColor=none;fillColor=none;align=center;verticalAlign=middle;whiteSpace=wrap;rounded=0;opacity=40;" parent="1" vertex="1">
          <mxGeometry x="340" y="598" width="40" height="20" as="geometry" />
        </mxCell>
        <mxCell id="8gNELmWuBTa5htfe1J0R-38" value="&lt;font style=&quot;font-size: 18px&quot;&gt;25&lt;/font&gt;" style="text;html=1;strokeColor=none;fillColor=none;align=center;verticalAlign=middle;whiteSpace=wrap;rounded=0;opacity=40;" parent="1" vertex="1">
          <mxGeometry x="151" y="728" width="40" height="20" as="geometry" />
        </mxCell>
        <mxCell id="8gNELmWuBTa5htfe1J0R-40" value="&lt;font style=&quot;font-size: 18px&quot;&gt;9&lt;/font&gt;" style="text;html=1;strokeColor=none;fillColor=none;align=center;verticalAlign=middle;whiteSpace=wrap;rounded=0;opacity=40;" parent="1" vertex="1">
          <mxGeometry x="326" y="728" width="40" height="20" as="geometry" />
        </mxCell>
        <mxCell id="8gNELmWuBTa5htfe1J0R-41" value="&lt;font style=&quot;font-size: 18px&quot;&gt;9&lt;/font&gt;" style="text;html=1;strokeColor=none;fillColor=none;align=center;verticalAlign=middle;whiteSpace=wrap;rounded=0;opacity=40;" parent="1" vertex="1">
          <mxGeometry x="446" y="728" width="40" height="20" as="geometry" />
        </mxCell>
        <mxCell id="8gNELmWuBTa5htfe1J0R-42" value="&lt;font style=&quot;font-size: 18px&quot;&gt;9&lt;/font&gt;" style="text;html=1;strokeColor=none;fillColor=none;align=center;verticalAlign=middle;whiteSpace=wrap;rounded=0;opacity=40;" parent="1" vertex="1">
          <mxGeometry x="460" y="598" width="40" height="20" as="geometry" />
        </mxCell>
        <mxCell id="8gNELmWuBTa5htfe1J0R-43" value="&lt;font style=&quot;font-size: 18px&quot;&gt;9&lt;/font&gt;" style="text;html=1;strokeColor=none;fillColor=none;align=center;verticalAlign=middle;whiteSpace=wrap;rounded=0;opacity=40;" parent="1" vertex="1">
          <mxGeometry x="566" y="728" width="40" height="20" as="geometry" />
        </mxCell>
        <mxCell id="8gNELmWuBTa5htfe1J0R-44" value="&lt;font style=&quot;font-size: 18px&quot;&gt;12&lt;/font&gt;" style="text;html=1;strokeColor=none;fillColor=none;align=center;verticalAlign=middle;whiteSpace=wrap;rounded=0;opacity=40;" parent="1" vertex="1">
          <mxGeometry x="706" y="728" width="40" height="20" as="geometry" />
        </mxCell>
        <mxCell id="8gNELmWuBTa5htfe1J0R-45" value="&lt;font style=&quot;font-size: 18px&quot;&gt;12&lt;/font&gt;" style="text;html=1;strokeColor=none;fillColor=none;align=center;verticalAlign=middle;whiteSpace=wrap;rounded=0;opacity=40;" parent="1" vertex="1">
          <mxGeometry x="600" y="598" width="40" height="20" as="geometry" />
        </mxCell>
        <mxCell id="U-vdB7Ap9JE3tG9Qq-0o-3" value="" style="endArrow=none;html=1;strokeWidth=2;fillColor=#e51400;strokeColor=#B20000;" parent="1" edge="1">
          <mxGeometry width="50" height="50" relative="1" as="geometry">
            <mxPoint x="64" y="328" as="sourcePoint" />
            <mxPoint x="330" y="328" as="targetPoint" />
          </mxGeometry>
        </mxCell>
        <mxCell id="U-vdB7Ap9JE3tG9Qq-0o-4" value="" style="endArrow=none;html=1;strokeWidth=2;fillColor=#e51400;strokeColor=#B20000;" parent="1" edge="1">
          <mxGeometry width="50" height="50" relative="1" as="geometry">
            <mxPoint x="64" y="223" as="sourcePoint" />
            <mxPoint x="330" y="223" as="targetPoint" />
          </mxGeometry>
        </mxCell>
        <mxCell id="U-vdB7Ap9JE3tG9Qq-0o-5" value="" style="endArrow=none;html=1;strokeWidth=2;fillColor=#e51400;strokeColor=#B20000;" parent="1" edge="1">
          <mxGeometry width="50" height="50" relative="1" as="geometry">
            <mxPoint x="330" y="326" as="sourcePoint" />
            <mxPoint x="330" y="222" as="targetPoint" />
          </mxGeometry>
        </mxCell>
        <mxCell id="U-vdB7Ap9JE3tG9Qq-0o-6" value="" style="endArrow=none;html=1;strokeWidth=2;fillColor=#e51400;strokeColor=#B20000;" parent="1" edge="1">
          <mxGeometry width="50" height="50" relative="1" as="geometry">
            <mxPoint x="65" y="328" as="sourcePoint" />
            <mxPoint x="65" y="224" as="targetPoint" />
          </mxGeometry>
        </mxCell>
        <mxCell id="U-vdB7Ap9JE3tG9Qq-0o-8" value="" style="endArrow=none;dashed=1;html=1;strokeWidth=2;" parent="1" edge="1">
          <mxGeometry width="50" height="50" relative="1" as="geometry">
            <mxPoint x="50" y="350" as="sourcePoint" />
            <mxPoint x="861" y="350" as="targetPoint" />
          </mxGeometry>
        </mxCell>
        <mxCell id="U-vdB7Ap9JE3tG9Qq-0o-9" value="" style="endArrow=none;dashed=1;html=1;strokeWidth=2;" parent="1" edge="1">
          <mxGeometry width="50" height="50" relative="1" as="geometry">
            <mxPoint x="50" y="99" as="sourcePoint" />
            <mxPoint x="861" y="99" as="targetPoint" />
          </mxGeometry>
        </mxCell>
        <mxCell id="U-vdB7Ap9JE3tG9Qq-0o-10" value="" style="endArrow=none;dashed=1;html=1;strokeWidth=2;" parent="1" edge="1">
          <mxGeometry width="50" height="50" relative="1" as="geometry">
            <mxPoint x="50" y="100" as="sourcePoint" />
            <mxPoint x="50" y="350" as="targetPoint" />
          </mxGeometry>
        </mxCell>
        <mxCell id="U-vdB7Ap9JE3tG9Qq-0o-11" value="" style="endArrow=none;dashed=1;html=1;strokeWidth=2;" parent="1" edge="1">
          <mxGeometry width="50" height="50" relative="1" as="geometry">
            <mxPoint x="860" y="100" as="sourcePoint" />
            <mxPoint x="860" y="350" as="targetPoint" />
          </mxGeometry>
        </mxCell>
        <mxCell id="U-vdB7Ap9JE3tG9Qq-0o-12" value="" style="endArrow=none;dashed=1;html=1;strokeWidth=2;" parent="1" edge="1">
          <mxGeometry width="50" height="50" relative="1" as="geometry">
            <mxPoint x="23" y="517" as="sourcePoint" />
            <mxPoint x="834" y="517" as="targetPoint" />
          </mxGeometry>
        </mxCell>
        <mxCell id="U-vdB7Ap9JE3tG9Qq-0o-13" value="" style="endArrow=none;dashed=1;html=1;strokeWidth=2;" parent="1" edge="1">
          <mxGeometry width="50" height="50" relative="1" as="geometry">
            <mxPoint x="19.999999999999773" y="777" as="sourcePoint" />
            <mxPoint x="831" y="777" as="targetPoint" />
          </mxGeometry>
        </mxCell>
        <mxCell id="U-vdB7Ap9JE3tG9Qq-0o-14" value="" style="endArrow=none;html=1;strokeWidth=2;fillColor=#e51400;strokeColor=#B20000;" parent="1" edge="1">
          <mxGeometry width="50" height="50" relative="1" as="geometry">
            <mxPoint x="47.5" y="651" as="sourcePoint" />
            <mxPoint x="420.5" y="651" as="targetPoint" />
          </mxGeometry>
        </mxCell>
        <mxCell id="U-vdB7Ap9JE3tG9Qq-0o-15" value="" style="endArrow=none;html=1;strokeWidth=2;fillColor=#e51400;strokeColor=#B20000;" parent="1" edge="1">
          <mxGeometry width="50" height="50" relative="1" as="geometry">
            <mxPoint x="46.99999999999977" y="755" as="sourcePoint" />
            <mxPoint x="420" y="755" as="targetPoint" />
          </mxGeometry>
        </mxCell>
        <mxCell id="U-vdB7Ap9JE3tG9Qq-0o-16" value="" style="endArrow=none;html=1;strokeWidth=2;fillColor=#e51400;strokeColor=#B20000;" parent="1" edge="1">
          <mxGeometry width="50" height="50" relative="1" as="geometry">
            <mxPoint x="48" y="756" as="sourcePoint" />
            <mxPoint x="48" y="652" as="targetPoint" />
          </mxGeometry>
        </mxCell>
        <mxCell id="U-vdB7Ap9JE3tG9Qq-0o-17" value="" style="endArrow=none;html=1;strokeWidth=2;fillColor=#e51400;strokeColor=#B20000;" parent="1" edge="1">
          <mxGeometry width="50" height="50" relative="1" as="geometry">
            <mxPoint x="420" y="756" as="sourcePoint" />
            <mxPoint x="420" y="652" as="targetPoint" />
          </mxGeometry>
        </mxCell>
        <mxCell id="U-vdB7Ap9JE3tG9Qq-0o-18" value="" style="endArrow=none;dashed=1;html=1;strokeWidth=2;" parent="1" edge="1">
          <mxGeometry width="50" height="50" relative="1" as="geometry">
            <mxPoint x="18" y="516" as="sourcePoint" />
            <mxPoint x="18" y="780" as="targetPoint" />
          </mxGeometry>
        </mxCell>
        <mxCell id="U-vdB7Ap9JE3tG9Qq-0o-19" value="" style="endArrow=none;dashed=1;html=1;strokeWidth=2;" parent="1" edge="1">
          <mxGeometry width="50" height="50" relative="1" as="geometry">
            <mxPoint x="834.9999999999998" y="516" as="sourcePoint" />
            <mxPoint x="834.9999999999998" y="779.9999999999998" as="targetPoint" />
          </mxGeometry>
        </mxCell>
      </root>
    </mxGraphModel>
  </diagram>
</mxfile>
